<svg width="85" height="85" viewBox="0 0 85 85" fill="none" xmlns="http://www.w3.org/2000/svg">
<rect x="17" y="47" width="20" height="20" fill="black"/>
<path d="M42.5003 67C47.5037 67 52.3947 65.5338 56.5549 62.7867C60.7151 60.0397 63.9575 56.1352 65.8722 51.5671C67.787 46.9989 68.2879 41.9723 67.3118 37.1227C66.3357 32.2732 63.9263 27.8186 60.3884 24.3223C56.8505 20.826 52.3429 18.445 47.4356 17.4804C42.5284 16.5157 37.4419 17.0108 32.8193 18.903C28.1968 20.7952 24.2458 23.9995 21.4661 28.1107C18.6864 32.222 17.2027 37.0555 17.2027 42L42.5003 42V67Z" fill="black"/>
<path d="M42.5 76C51.6247 76 60.3757 72.4179 66.8278 66.0416C73.28 59.6654 76.9048 51.0174 76.9048 42C76.9048 32.9826 73.28 24.3346 66.8278 17.9584C60.3757 11.5821 51.6247 8 42.5 8L42.5 13.1C50.256 13.1 57.6943 16.1448 63.1787 21.5646C68.663 26.9844 71.744 34.3352 71.744 42C71.744 49.6648 68.663 57.0156 63.1787 62.4354C57.6943 67.8552 50.256 71 42.5 71V76Z" fill="black"/>
<rect x="40" y="71" width="3" height="14" fill="black"/>
</svg>
